# File produced by Open Asset Import Library (http://www.assimp.sf.net)
# (assimp v4.1.0)

mtllib Computer.mtl

# 148 vertex positions
v  1.691573977470398 0.2809000015258789 7.245751857757568
v  1.419074058532715 0.2809000015258789 7.245751857757568
v  1.419074058532715 0.2809000015258789 7.654651641845703
v  1.691573977470398 0.2809000015258789 7.654651641845703
v  3.071174144744873 0.09349995106458664 12.08005142211914
v  3.059874057769775 0.7688000202178955 10.7087516784668
v  3.09377384185791 0.5249999761581421 11.93675231933594
v  2.871374130249023 0.4408000111579895 8.241151809692383
v  2.871374130249023 0.07679998129606247 8.030451774597168
v  1.419074058532715 0.08249998092651367 7.654651641845703
v  1.691573977470398 0.08249998092651367 7.654651641845703
v  1.419074058532715 0.08249998092651367 7.245751857757568
v  1.691573977470398 0.08249998092651367 7.245751857757568
v  0.5269739627838135 0.05189995840191841 7.469651699066162
v  2.551673889160156 0.4158999919891357 7.680351734161377
v  2.551673889160156 0.05189995840191841 7.469651699066162
v  0.5269739627838135 0.4158999919891357 7.680351734161377
v  2.551673889160156 0.5127000212669373 8.046351432800293
v  0.5269739627838135 0.5127000212669373 8.046351432800293
v  2.726073980331421 0.9380999803543091 10.501051902771
v  0.363874077796936 0.9093000292778015 10.4956521987915
v  2.69227409362793 0.6746000051498413 11.97475147247314
v  0.3977739810943604 0.645799994468689 11.96925163269043
v  2.703574180603027 0.4318000078201294 12.49145126342773
v  0.3751740455627441 0.4318000078201294 12.49145126342773
v  2.703574180603027 0.05809998139739037 12.62475204467773
v  0.3751740455627441 0.05809998139739037 12.62475204467773
v  0.3751740455627441 -0.001099943998269737 12.03345203399658
v  2.551673889160156 -0.005399941932410002 7.989851951599121
v  2.703574180603027 -0.001099943998269737 12.03345203399658
v  0.5269739627838135 -0.005399941932410002 7.989851951599121
v  0.2073739767074585 0.07679998129606247 8.030451774597168
v  0.007474064826965332 0.09349995106458664 12.08005142211914
v  -0.003726005554199219 0.4961000084877014 11.93135166168213
v  0.03007400035858154 0.7398999929428101 10.7033519744873
v  0.2073739767074585 0.4408000111579895 8.241151809692383
v  3.046333312988281 23.2814998626709 -5.481860160827637
v  2.810032844543457 4.734799861907959 -0.5123600959777832
v  -1.462067127227783 5.22790002822876 -4.581959247589111
v  -20.88796615600586 3.868000030517578 0.5217409133911133
v  -16.63396644592285 5.22790002822876 -4.581959247589111
v  2.870932579040527 3.868000030517578 0.5217409133911133
v  -0.9947671890258789 14.80420017242432 -6.626459121704102
v  -17.10126686096191 14.80420017242432 -6.626459121704102
v  -21.0633659362793 23.2814998626709 -5.481858253479004
v  -19.22026824951172 6.174600124359131 0.6202406883239746
v  1.28453254699707 6.174600124359131 0.6202397346496582
v  1.006632804870605 6.09630012512207 0.317141056060791
v  -18.94236755371094 6.09630012512207 0.3171420097351074
v  2.810032844543457 5.667900085449219 0.7379398345947266
v  2.870932579040527 4.185599803924561 1.171939849853516
v  -20.88796615600586 4.172100067138672 1.137742042541504
v  -20.82696723937988 5.667900085449219 0.737940788269043
v  -20.82696723937988 4.734799861907959 -0.5123591423034668
v  -16.75646591186523 0.1000000014901161 -1.454959154129028
v  -1.046267032623291 0.5971000194549561 -1.454959154129028
v  -16.75646591186523 0.5971000194549561 -1.454959154129028
v  -1.046267032623291 0.1000000014901161 -1.454959154129028
v  -11.05946731567383 9.18480110168457 -5.451659202575684
v  -6.954267024993896 8.860799789428711 -5.14625883102417
v  -6.954267024993896 9.18480110168457 -5.451659202575684
v  -11.05946731567383 8.860799789428711 -5.14625883102417
v  -6.954267024993896 8.4364013671875 -4.979959011077881
v  -11.05946731567383 8.4364013671875 -4.979959011077881
v  1.28453254699707 22.76059913635254 -3.823959112167358
v  -19.22026824951172 22.76059913635254 -3.823959112167358
v  -18.94236755371094 22.30229949951172 -4.48405933380127
v  1.006632804870605 22.30229949951172 -4.48405933380127
v  -6.787567138671875 9.177499771118164 -4.889859199523926
v  -11.21326732635498 9.177499771118164 -4.889859199523926
v  -11.43436717987061 9.457401275634766 -5.939659118652344
v  -6.566066741943359 9.457401275634766 -5.939659118652344
v  -11.45456695556641 7.943600177764893 -4.557959079742432
v  -6.554166793823242 7.94350004196167 -4.557959079742432
v  -6.309267044067383 7.816699981689453 -5.559759140014648
v  -11.69976711273193 7.816800117492676 -5.559759140014648
v  -6.954267024993896 7.841099739074707 -6.983559131622314
v  -11.05946731567383 7.841099739074707 -6.983559131622314
v  -6.954267024993896 7.484799861907959 -7.82245922088623
v  -6.954267024993896 7.893499851226807 -7.27195930480957
v  -6.954267024993896 7.768400192260742 -7.566558837890625
v  -6.954267024993896 6.8225998878479 -6.550559043884277
v  -6.954267024993896 6.369100093841553 -6.623959064483643
v  -6.954267024993896 1.226500034332275 -7.570359230041504
v  -6.954267024993896 1.62529993057251 -7.392158985137939
v  -6.954267024993896 7.085899829864502 -8.000658988952637
v  -6.954267024993896 1.888700008392334 -8.842259407043457
v  -6.954267024993896 1.092000007629395 -8.647659301757812
v  -6.954267024993896 0.8177000284194946 -8.120859146118164
v  -6.954267024993896 0.9429000020027161 -7.826259136199951
v  -6.954267024993896 0.8701000213623047 -8.409258842468262
v  -6.954267024993896 1.449699997901917 -8.799758911132812
v  -11.41736698150635 2.140799999237061 -7.206459045410156
v  -16.75646591186523 0.5971000194549561 -11.24395751953125
v  -11.41736698150635 2.140799999237061 -9.025259017944336
v  -11.05946731567383 6.8225998878479 -6.550559043884277
v  -11.05946731567383 6.369100093841553 -6.623959064483643
v  -11.05946731567383 1.62529993057251 -7.392158985137939
v  3.046333312988281 23.6471004486084 -4.117259979248047
v  -11.05946731567383 7.085899829864502 -8.000658988952637
v  -11.05946731567383 1.888700008392334 -8.842259407043457
v  -1.046267032623291 0.5971000194549561 -11.24395942687988
v  -6.538166999816895 2.140799999237061 -9.025259017944336
v  -6.538166999816895 2.140799999237061 -7.206459045410156
v  -1.046267032623291 0.1000000014901161 -11.24395942687988
v  -16.75646591186523 0.1000000014901161 -11.24395751953125
v  -6.743066787719727 0.2867000102996826 -8.697158813476562
v  -11.16646671295166 0.2867000102996826 -7.3732590675354
v  -6.680566787719727 0.2867000102996826 -7.3732590675354
v  -11.11866760253906 0.2867000102996826 -8.697158813476562
v  -21.0633659362793 23.6471004486084 -4.11725902557373
v  -11.05946731567383 1.449699997901917 -8.799758911132812
v  -11.05946731567383 1.092000007629395 -8.647659301757812
v  -11.05946731567383 0.8701000213623047 -8.409258842468262
v  -11.05946731567383 7.893499851226807 -7.27195930480957
v  -11.05946731567383 7.768400192260742 -7.566558837890625
v  -11.05946731567383 7.484799861907959 -7.82245922088623
v  -11.05946731567383 0.9429000020027161 -7.826259136199951
v  -11.05946731567383 0.8177000284194946 -8.120859146118164
v  -11.05946731567383 1.226500034332275 -7.570359230041504
v  10.91193103790283 18.11980056762695 -12.05435943603516
v  4.130031108856201 18.11980056762695 -12.05435943603516
v  4.130031108856201 18.11980056762695 0.859440803527832
v  10.91193103790283 18.11980056762695 0.859440803527832
v  10.46483135223389 13.94919967651367 1.068440914154053
v  4.632431030273438 13.94919967651367 1.068541049957275
v  10.46483135223389 13.94919967651367 0.624640941619873
v  4.632431030273438 13.94919967651367 0.6114406585693359
v  4.632431030273438 10.54259967803955 1.239040851593018
v  10.46483135223389 10.54259967803955 1.239040851593018
v  4.632431030273438 10.54259967803955 0.6171407699584961
v  10.46483135223389 10.54259967803955 0.6171407699584961
v  10.49363136291504 16.61630058288574 0.9348406791687012
v  4.629931449890137 16.61630058288574 0.9348406791687012
v  10.49363136291504 16.61630058288574 0.612940788269043
v  4.629931449890137 16.61630058288574 0.612940788269043
v  4.629931449890137 14.74839973449707 1.028340816497803
v  10.49363136291504 14.74839973449707 1.028440952301025
v  4.629931449890137 14.74839973449707 0.612940788269043
v  10.49363136291504 14.74839973449707 0.612940788269043
v  10.91193103790283 0.9574000239372253 1.719340801239014
v  4.130031108856201 0.9574000239372253 1.719340801239014
v  10.52283096313477 0.0246999803930521 -11.66525936126709
v  10.52283096313477 0.0246999803930521 1.330240726470947
v  4.519131183624268 0.0246999803930521 1.330240726470947
v  4.519131183624268 0.0246999803930521 -11.66525936126709
v  10.91193103790283 0.9574000239372253 -12.05435943603516
v  4.130031108856201 0.9574000239372253 -12.05435943603516

# 178 UV coordinates
vt 0.5254999995231628 0.9842000007629395 0
vt 0.5080000162124634 0.9842000007629395 0
vt 0.5080000162124634 0.9666000008583069 0
vt 0.5254999995231628 0.9666000008583069 0
vt 0.5623999834060669 0.8373000025749207 0
vt 0.5620999932289124 0.8726000189781189 0
vt 0.5630999803543091 0.8410000205039978 0
vt 0.5565999746322632 0.9359999895095825 0
vt 0.5565999746322632 0.9413999915122986 0
vt 0.488099992275238 0.9557999968528748 0
vt 0.5472000241279602 0.9503999948501587 0
vt 0.5472000241279602 0.9557999968528748 0
vt 0.488099992275238 0.9503999948501587 0
vt 0.5472000241279602 0.9409999847412109 0
vt 0.488099992275238 0.9409999847412109 0
vt 0.552299976348877 0.8779000043869019 0
vt 0.4833000004291534 0.878000020980835 0
vt 0.5514000058174133 0.8399999737739563 0
vt 0.4842999875545502 0.8402000069618225 0
vt 0.5516999959945679 0.82669997215271 0
vt 0.483599990606308 0.82669997215271 0
vt 0.5516999959945679 0.8233000040054321 0
vt 0.483599990606308 0.8233000040054321 0
vt 0.483599990606308 0.8385000228881836 0
vt 0.5472000241279602 0.9424999952316284 0
vt 0.5516999959945679 0.8385000228881836 0
vt 0.488099992275238 0.9424999952316284 0
vt 0.4787000119686127 0.9413999915122986 0
vt 0.472900003194809 0.8373000025749207 0
vt 0.4726000130176544 0.8410999774932861 0
vt 0.4735000133514404 0.8726999759674072 0
vt 0.4787000119686127 0.9359999895095825 0
vt 0.6442000269889832 0.9944000244140625 0
vt 0.9689000248908997 0.9902999997138977 0
vt 0.9430999755859375 0.9161999821662903 0
vt 0.9876000285148621 0.5792999863624573 0
vt 0.9430999755859375 0.6531000137329102 0
vt 0.9876000285148621 0.9914000034332275 0
vt 0.7777000069618225 0.9243000149726868 0
vt 0.7777000069618225 0.6449999809265137 0
vt 0.6442000269889832 0.5763000249862671 0
vt 0.5297999978065491 0.4165000021457672 0
vt 0.5297999978065491 0.7721999883651733 0
vt 0.5297999978065491 0.7656000256538391 0
vt 0.5297999978065491 0.4212999939918518 0
vt 0.9721000194549561 0.532800018787384 0
vt 0.9623000025749207 0.5651000142097473 0
vt 0.9886000156402588 0.5659000277519226 0
vt 0.9909999966621399 0.550000011920929 0
vt 0.9886999726295471 0.5649999976158142 0
vt 0.2224999964237213 0.8169000148773193 0
vt 0.4566999971866608 0.8169000148773193 0
vt 0.2347999960184097 0.1037999019026756 0
vt 0.2250999957323074 0.01959997043013573 0
vt 0.2347999960184097 0.01959997043013573 0
vt 0.2250999957323074 0.1037999019026756 0
vt 0.217399999499321 0.01959997043013573 0
vt 0.217399999499321 0.1037999019026756 0
vt 0.2372999936342239 0.7721999883651733 0
vt 0.2372999936342239 0.4165000021457672 0
vt 0.2432000041007996 0.4212999939918518 0
vt 0.2432000041007996 0.7656000256538391 0
vt 0.8772000074386597 0.8238999843597412 0
vt 0.8772000074386597 0.7470999956130981 0
vt 0.8679999709129333 0.7433000206947327 0
vt 0.8679999709129333 0.8277000188827515 0
vt 0.8988000154495239 0.742900013923645 0
vt 0.8988000154495239 0.8278999924659729 0
vt 0.8964999914169312 0.8321999907493591 0
vt 0.8964999914169312 0.7386999726295471 0
vt 0.2689999938011169 0.01959997043013573 0
vt 0.2689999938011169 0.1037999019026756 0
vt 0.1749999970197678 0.2433999925851822 0
vt 0.1929000020027161 0.2206999957561493 0
vt 0.196600005030632 0.2067999988794327 0
vt 0.1853999942541122 0.2336000055074692 0
vt 0.2509999871253967 0.1455000042915344 0
vt 0.2489999979734421 0.128700003027916 0
vt 0.2425999939441681 0.1177000030875206 0
vt 0.1817999929189682 0.1788000017404556 0
vt 0.1708000004291534 0.1788000017404556 0
vt 0.04399995878338814 0.1836999952793121 0
vt 0.05559998005628586 0.178399994969368 0
vt 0.1633999049663544 0.2486000061035156 0
vt 0.0372999906539917 0.2483000010251999 0
vt 0.02329999022185802 0.2330998927354813 0
vt 0.02609997056424618 0.2063000053167343 0
vt 0.03369997814297676 0.1934999972581863 0
vt 0.02249996922910213 0.2202000021934509 0
vt 0.02849996089935303 0.2428999990224838 0
vt 0.9689000248908997 0.5803999900817871 0
vt 0.3021000027656555 0.921999990940094 0
vt 0.2224999964237213 0.9957000017166138 0
vt 0.3021000027656555 0.9552000164985657 0
vt 0.247099906206131 0.1037999019026756 0
vt 0.2442000061273575 0.01959997043013573 0
vt 0.247099906206131 0.01959997043013573 0
vt 0.2442000061273575 0.1037999019026756 0
vt 0.123599998652935 0.1037999019026756 0
vt 0.123599998652935 0.01959997043013573 0
vt 0.5676000118255615 0.3876000046730042 0
vt 0.5674999952316284 0.7997000217437744 0
vt 0.5386999845504761 0.7986000180244446 0
vt 0.5386999845504761 0.388700008392334 0
vt 0.2187000066041946 0.8026999831199646 0
vt 0.08319997042417526 0.01959997043013573 0
vt 0.02249996922910213 0.1037999019026756 0
vt 0.02249996922910213 0.01959997043013573 0
vt 0.08319997042417526 0.1037999019026756 0
vt 0.4566999971866608 0.9957000017166138 0
vt 0.3747999966144562 0.9552000164985657 0
vt 0.3747999966144562 0.921999990940094 0
vt 0.3718000054359436 0.9491999745368958 0
vt 0.3057999908924103 0.925000011920929 0
vt 0.3727000057697296 0.925000011920929 0
vt 0.3064999878406525 0.9491999745368958 0
vt 0.2187000066041946 0.3846000134944916 0
vt 0.2912000119686127 0.1037999019026756 0
vt 0.2867000102996826 0.01959997043013573 0
vt 0.2912000119686127 0.01959997043013573 0
vt 0.2867000102996826 0.1037999019026756 0
vt 0.2815000116825104 0.01959997043013573 0
vt 0.2815000116825104 0.1037999019026756 0
vt 0.2757000029087067 0.01959997043013573 0
vt 0.2757000029087067 0.1037999019026756 0
vt 0.1204999983310699 0.01959997043013573 0
vt 0.1204999983310699 0.1037999019026756 0
vt 0.1156999990344048 0.01959997043013573 0
vt 0.1156999990344048 0.1037999019026756 0
vt 0.1096000000834465 0.01959997043013573 0
vt 0.1096000000834465 0.1037999019026756 0
vt 0.1027000024914742 0.01959997043013573 0
vt 0.1027000024914742 0.1037999019026756 0
vt 0.09549999237060547 0.01959997043013573 0
vt 0.09549999237060547 0.1037999019026756 0
vt 0.08879995346069336 0.01959997043013573 0
vt 0.08879995346069336 0.1037999019026756 0
vt 0.6317999958992004 0.5730999708175659 0
vt 0.6317999958992004 0.9911999702453613 0
vt 0.5763000249862671 0.5730999708175659 0
vt 0.5763000249862671 0.9911999702453613 0
vt 0.6442000269889832 0.564300000667572 0
vt 0.6442000269889832 0.532800018787384 0
vt 0.5791000127792358 0.5730999708175659 0
vt 0.9740999937057495 0.3801000118255615 0
vt 0.9740999937057495 0.517300009727478 0
vt 0.6378999948501587 0.517300009727478 0
vt 0.6378999948501587 0.3801000118255615 0
vt 0.4334000051021576 0.2802999913692474 0
vt 0.3176999986171722 0.2802999913692474 0
vt 0.3176999986171722 0.214699998497963 0
vt 0.4334000051021576 0.214699998497963 0
vt 0.433899998664856 0.3316999971866608 0
vt 0.3176000118255615 0.3316999971866608 0
vt 0.3176000118255615 0.2957000136375427 0
vt 0.433899998664856 0.2957000136375427 0
vt 0.3077000081539154 0.3657999932765961 0
vt 0.4422000050544739 0.3657999932765961 0
vt 0.4422000050544739 0.03009998053312302 0
vt 0.3077000081539154 0.03009998053312302 0
vt 0.9639999866485596 0.3880000114440918 0
vt 0.6255999803543091 0.3880000114440918 0
vt 0.6255999803543091 0.5095000267028809 0
vt 0.9639999866485596 0.5095000267028809 0
vt 0.3154000043869019 0.01219999045133591 0
vt 0.4345000088214874 0.01219999045133591 0
vt 0.978600025177002 0.01809995993971825 0
vt 0.6434999704360962 0.01809995993971825 0
vt 0.6334999799728394 0.03599995002150536 0
vt 0.9886000156402588 0.03599995002150536 0
vt 0.4803000092506409 0.01879996061325073 0
vt 0.6093999743461609 0.01879996061325073 0
vt 0.6176999807357788 0.03669995069503784 0
vt 0.4718999862670898 0.03669995069503784 0
vt 0.9664999842643738 0.3664999902248383 0
vt 0.6334999799728394 0.3664999902248383 0
vt 0.6176999807357788 0.3671999871730804 0
vt 0.4718999862670898 0.3671999871730804 0

# 259 vertex normals
vn 0 1 0
vn 0.9975442886352539 -0.04853177070617676 -0.0504988394677639
vn 0.9949116110801697 -0.08689247816801071 -0.05099730938673019
vn 0.9970151782035828 -0.06569056957960129 -0.04056518897414207
vn 0.9976629018783569 -0.03986494988203049 -0.05549436062574387
vn 0.9983713030815125 0.02858090028166771 -0.04937558993697166
vn 0 0 1
vn -1 0 0
vn 1 0 0
vn 0 0 -1
vn 0 -1 0
vn 0 0.5009706020355225 -0.8654643297195435
vn 0 0.7039368152618408 -0.7102627158164978
vn 0 0.5009698271751404 -0.8654648065567017
vn 0 0.8704714179039001 -0.492219090461731
vn 0 0.9737560749053955 -0.2275941073894501
vn -0.003825902007520199 0.980612576007843 -0.1959192007780075
vn -0.008199869655072689 0.9985836744308472 -0.05256950110197067
vn -0.01249860972166061 0.9978324174880981 0.06460832804441452
vn -0.01259833015501499 0.9652038812637329 0.2611950933933258
vn -0.008499026298522949 0.9442558288574219 0.3291031122207642
vn -0.00450396491214633 0.7784035205841064 0.6277480721473694
vn 0 0.5765805244445801 0.8170403242111206
vn 0 0.3359695971012115 0.941872775554657
vn 0 0.3356535136699677 0.9419856071472168
vn -0.1238031014800072 -0.9918345212936401 0.03061061911284924
vn 0.1277367025613785 -0.9910537004470825 -0.03867851942777634
vn 0.09811604022979736 -0.9934722781181335 0.05818963050842285
vn -0.1029872000217438 -0.9924165010452271 -0.06710535287857056
vn 0.08740103244781494 -0.9901703000068665 -0.1091962978243828
vn -0.1311886012554169 -0.985390305519104 -0.1086077019572258
vn -0.2537032961845398 -0.9664170742034912 -0.04089735820889473
vn -0.2434961944818497 -0.9688935875892639 0.04421424120664597
vn -0.07927154749631882 -0.9919049143791199 0.09920047968626022
vn 0.119003601372242 -0.9879662990570068 0.09879671782255173
vn 0.2457872033119202 -0.9689555764198303 0.0267149806022644
vn 0.255409300327301 -0.9651463031768799 -0.05708688125014305
vn 0.8284363746643066 0.2805849015712738 -0.4847320020198822
vn 0.8284364938735962 0.2805848121643066 -0.4847322106361389
vn 0.7259970903396606 0.530676007270813 -0.4373914897441864
vn 0.5410724282264709 0.7916501760482788 -0.2837792932987213
vn 0.3355869948863983 0.9178943037986755 -0.2117817997932434
vn 0.4071975946426392 0.9116649031639099 -0.05529296025633812
vn 0.4188840091228485 0.9056810140609741 0.06540726870298386
vn 0.3590036928653717 0.9001067280769348 0.2468284070491791
vn 0.647077202796936 0.5934432148933411 0.4786610901355743
vn 0.6195350885391235 0.5766447186470032 0.5325949192047119
vn 0.8000876903533936 0.1762989014387131 0.5733922123908997
vn 0.8160110116004944 0.1432386934757233 0.5600078105926514
vn -0.7141717076301575 0.4556325972080231 0.5313735008239746
vn -0.8050279021263123 0.1924791038036346 0.5611435174942017
vn -0.8063210248947144 0.1984193027019501 0.5572041273117065
vn -0.5119273066520691 0.788395881652832 0.3411194086074829
vn -0.3589068949222565 0.8971245884895325 0.2575913071632385
vn -0.4222033023834229 0.9045671820640564 0.05918335169553757
vn -0.401309996843338 0.9148185253143311 -0.04535716027021408
vn -0.393889993429184 0.9007329940795898 -0.1831139028072357
vn -0.6402673721313477 0.6709147095680237 -0.3740738034248352
vn -0.6466060280799866 0.6510741710662842 -0.3974961042404175
vn -0.8285177946090698 0.2805246114730835 -0.484627902507782
vn -0.8285176157951355 0.2805252969264984 -0.4846282005310059
vn -0.9981952905654907 -0.03541766852140427 -0.04849505051970482
vn -0.9979636073112488 -0.03248047083616257 -0.05489689111709595
vn -0.998369574546814 0.02859514020383358 -0.04940025880932808
vn -0.9965696930885315 -0.06741189211606979 -0.04800492152571678
vn -0.9985272288322449 -0.04093091934919357 -0.03560996055603027
vn 0.6632850170135498 -0.2015621960163116 -0.7207120060920715
vn 0 -0.9662861824035645 -0.2574706077575684
vn 0 -0.966286301612854 -0.2574706077575684
vn 0 0.1338052004575729 -0.9910076856613159
vn 0 0.1338053047657013 -0.9910076856613159
vn 0 0.1338053047657013 -0.9910076260566711
vn 0 0.9682148098945618 -0.2501207888126373
vn 0 0.9682145714759827 -0.2501210868358612
vn 0.9987787008285522 0.0443875715136528 -0.02170372009277344
vn 0.9991161823272705 0.0336872898042202 -0.02514003962278366
vn 0.9987791180610657 0.04437404125928879 -0.02170806936919689
vn 0.9987819194793701 0.04433608055114746 -0.02165739983320236
vn -0.9989234209060669 0.03720270842313766 -0.02771317027509212
vn -0.9991940259933472 0.03599791973829269 -0.01776814088225365
vn -0.9989237189292908 0.03720182180404663 -0.02770542912185192
vn -0.9989228248596191 0.03718781098723412 -0.02775334939360619
vn 0 0.6859105229377747 0.7276859283447266
vn 0 0.5884882211685181 0.8085057735443115
vn 0 0.6859105825424194 0.7276859283447266
vn 0 0.4797109067440033 0.87742680311203
vn 0 0.3648382127285004 0.9310709238052368
vn 0 0.3648382127285004 0.9310711026191711
vn 0 -0.8214300870895386 0.5703092217445374
vn 0 -0.8214300870895386 0.5703094005584717
vn 0 -0.8214300870895386 0.5703092813491821
vn 0 -0.9662455916404724 -0.2576229870319366
vn 0 -0.9662454724311829 -0.2576229870319366
vn 1.874969893833622e-05 0.9920843839645386 -0.1255737990140915
vn 2.023610068135895e-05 0.9920852780342102 -0.1255654990673065
vn 1.99940986931324e-05 0.9920852184295654 -0.1255667954683304
vn 1.857139977801125e-05 0.9920842051506042 -0.1255747973918915
vn -4.452660050446866e-06 -0.2597360014915466 -0.9656797051429749
vn -1.014380018204974e-06 -0.2597481906414032 -0.9656764268875122
vn 0 -0.2597517967224121 -0.965675413608551
vn -5.254210009297822e-06 -0.2597332000732422 -0.9656804800033569
vn 0 0.7517765760421753 -0.6594179272651672
vn 1 0 -4.459050160221523e-07
vn 1 0 7.525139835706796e-07
vn 1 0 1.156569965132803e-06
vn 1 0 2.629519997299212e-07
vn 1 0 -3.840380031761015e-07
vn 1 0 -2.477260068189935e-07
vn 1 0 -3.538769988153945e-06
vn 1 0 1.285579998011599e-07
vn -0.6492785811424255 -0.2045527994632721 -0.7325267791748047
vn -3.242239927203627e-06 -0.3533290028572083 -0.9354993104934692
vn -6.637490059802076e-07 -0.3533377945423126 -0.9354957938194275
vn 0 -0.3533400893211365 -0.9354950189590454
vn -6.648429916822352e-06 -0.3533172011375427 -0.9355037212371826
vn 0 -0.1274039000272751 -0.9918509125709534
vn 0 -0.1274039000272751 -0.9918509721755981
vn -0.2777543962001801 0.9606521725654602 0
vn -0.2777543962001801 0.9606521129608154 0
vn 0 -0.1597727984189987 0.9871538281440735
vn 0 -0.1598140001296997 0.9871472120285034
vn 0 -0.1597727984189987 0.9871538877487183
vn 0 -0.1598553061485291 0.9871404767036438
vn 0 0.2840569913387299 0.9588074088096619
vn 0 0.2840569913387299 0.9588075280189514
vn 0 0.2840569019317627 0.9588075280189514
vn 0 0.2840569019317627 0.9588074088096619
vn -0.001540957950055599 0.2809332013130188 0.9597262144088745
vn 5.011449957237346e-06 0.2262143939733505 0.974077582359314
vn 1.904550117615145e-07 0.2261970937252045 0.9740815758705139
vn -0.001498103025369346 0.2808839082717896 0.9597405791282654
vn 0.01144063007086515 0.2588016986846924 0.9658628106117249
vn 0 0.2261988073587418 0.9740812182426453
vn 0 0.226264700293541 0.974065899848938
vn 0.02972537092864513 0.2602275907993317 0.9650896787643433
vn 0.0113899102434516 0.2587912082672119 0.9658662080764771
vn -0.747640073299408 0.1886439025402069 0.6367477774620056
vn 0 0.1598511040210724 -0.9871410727500916
vn 0 0.1598511040210724 -0.9871411919593811
vn 0 0.8208606243133545 -0.5711286067962646
vn 0 0.8208606243133545 -0.5711287260055542
vn 0 0.9658169746398926 0.2592248022556305
vn 0 0.9658170938491821 0.2592248022556305
vn 0 -0.697449803352356 0.7166336178779602
vn 0 -0.697449803352356 0.716633677482605
vn -0.08194380253553391 -0.2120102047920227 -0.9738258719444275
vn -0.08188343048095703 -0.2119656950235367 -0.9738407135009766
vn -0.08218950033187866 -0.2121910005807877 -0.9737659096717834
vn -0.08180344104766846 -0.2119068950414658 -0.9738602042198181
vn 0 0.3141061961650848 0.9493879079818726
vn 0 0.3141069114208221 0.9493877291679382
vn 0 0.3141067922115326 0.9493877291679382
vn 0 0.08960086107254028 -0.9959778189659119
vn 0 0.08960098028182983 -0.9959778189659119
vn 0 0.08960092067718506 -0.9959778189659119
vn 0 0.1742518991231918 0.9847012162208557
vn 0 0.1742518991231918 0.9847010970115662
vn 0 0.1742520034313202 0.9847012162208557
vn -0.01150637026876211 0.2605938017368317 0.965380072593689
vn -0.02921115979552269 0.2587083876132965 0.9655137062072754
vn -0.0115201398730278 0.2605921924114227 0.9653803110122681
vn -0.01144819986075163 0.2605490982532501 0.9653928279876709
vn 0.270599901676178 0.9626919031143188 0
vn -1 0 1.924239967365793e-07
vn -1 0 -1.156820076175791e-06
vn -1 0 1.41351995353034e-06
vn -1 0 1.854370026421748e-07
vn -1 0 1.523980017736903e-06
vn 0 0.407878190279007 -0.9130364060401917
vn 0 0.5007233023643494 -0.8656075000762939
vn 0 0.4078789949417114 -0.9130361080169678
vn 0 0.5890066027641296 -0.808128297328949
vn 0 0.769523024559021 -0.6386193037033081
vn 0 0.8547645211219788 -0.5190163254737854
vn 0 0.9779613018035889 -0.2087865024805069
vn 0 0.9999324083328247 -0.01163524016737938
vn 0 0.983892023563385 0.1787641942501068
vn 0 0.983892023563385 0.1787641048431396
vn 0.7478278279304504 0.1718273013830185 0.6412714123725891
vn 0 -0.4079641997814178 0.9129979014396667
vn 0 -0.5007205009460449 0.8656091094017029
vn 0 -0.407964289188385 0.9129980206489563
vn 0 -0.5890035033226013 0.8081305027008057
vn 0 -0.7695314288139343 0.6386091113090515
vn 0 -0.854767918586731 0.5190107226371765
vn 0 -0.9779633283615112 0.2087768018245697
vn 0 -0.999932587146759 0.01161730010062456
vn 0 -0.9332931041717529 -0.3591156005859375
vn 0 -0.8461856245994568 -0.5328884124755859
vn 0 -0.6306061744689941 -0.7761030197143555
vn 0 -0.5148339867591858 -0.8572900295257568
vn 0 -0.2959674894809723 -0.9551981091499329
vn 0 -0.1967892944812775 -0.9804458022117615
vn 0 -0.09636037796735764 -0.9953466057777405
vn 0 0.9659335017204285 -0.258790910243988
vn 0 0.9659333825111389 -0.2587907910346985
vn 0 0.9659333825111389 -0.2587907016277313
vn 0.9999194741249084 -0.01225524954497814 0.003283499972894788
vn 0.9999194145202637 -0.0113976001739502 0.005607306025922298
vn 0.9999192953109741 -0.0113906804472208 0.005624949000775814
vn 0.9999123215675354 -0.01061671040952206 0.007923126220703125
vn 0.6196838021278381 -0.1926739066839218 -0.760834276676178
vn 0.4772126972675323 -0.6594452857971191 -0.5808613896369934
vn 0.08322762697935104 -0.2119486927986145 -0.9737305045127869
vn 0.08341448754072189 -0.2120839059352875 -0.9736850261688232
vn 0.08333671092987061 -0.2120275944471359 -0.973703920841217
vn 0.08375030010938644 -0.2123267948627472 -0.9736033082008362
vn -0.6730238795280457 -0.1856901943683624 -0.7159314751625061
vn 0.9396305084228516 0.09720206260681152 0.3280951082706451
vn 0.9909679293632507 0.1340994983911514 0
vn -0.4844030141830444 -0.6561840772628784 -0.5785983800888062
vn -0.9999243021011353 -0.01189154013991356 0.003185868030413985
vn -0.9999188184738159 -0.01140176970511675 0.005690394900739193
vn -0.9999186992645264 -0.01139395963400602 0.005729912780225277
vn -0.9999067783355713 -0.01094204001128674 0.008165895007550716
vn -0.9939488768577576 0.1098430976271629 0
vn 0.9434424042701721 -0.2117026001214981 -0.2551442086696625
vn 0 -0.8966870903968811 0.4426651000976562
vn -0.0001189460017485544 -0.8975936770439148 0.4408237934112549
vn -0.0001007199971354567 -0.8976112008094788 0.440788209438324
vn -0.0001211749986396171 -0.8985342979431152 0.4389033913612366
vn 0.949512779712677 -0.2400265038013458 -0.2020220011472702
vn -0.9576042294502258 -0.1982762962579727 -0.2089997977018356
vn -0.932718813419342 -0.2470636963844299 -0.2626694142818451
vn -0.938628077507019 0.08927427977323532 0.3331778049468994
vn 0.9856370091438293 0.1650858074426651 0.0355864092707634
vn -0.9962744116783142 0.07228540629148483 0.04703300818800926
vn -3.684380089907791e-07 -1 -0
vn 3.226200249173417e-07 -1 0
vn -3.323370094676648e-07 -1 -0
vn 3.577189886527776e-07 -1 0
vn 0.0002983289887197316 0.05000941827893257 0.9987487196922302
vn 3.758849925361574e-05 0.05010879039764404 0.9987437725067139
vn -6.20044011157006e-05 0.05004208907485008 0.9987471103668213
vn -0.0001344179909210652 0.05010395869612694 0.9987440705299377
vn 0.0002092489885399118 0.05013345927000046 0.9987425208091736
vn -2.756170033535454e-05 0.05007493123412132 0.9987455010414124
vn -0.000167468999279663 0.05003051832318306 0.998747706413269
vn 2.836889871105086e-05 0.05007820948958397 0.998745322227478
vn 8.651000098325312e-05 0.05006289109587669 0.9987460970878601
vn -3.030560037586838e-06 0.05004553869366646 0.9987471103668213
vn 6.19706988800317e-05 0.05000251159071922 0.9987491965293884
vn 3.016269829458906e-06 0.05004506930708885 0.9987469911575317
vn -0.001180946012027562 -0.00042051199125126 0.9999992251396179
vn -0.001064299955032766 -0.0002295839949510992 0.9999995231628418
vn 0 0.001673041959293187 0.9999986886978149
vn -0.002263247035443783 -0.002201795112341642 0.9999951124191284
vn 0 -0.385015994310379 0.9229099154472351
vn 0 -0.3850156962871552 0.9229099750518799
vn 0 -0.3850157856941223 0.9229100942611694
vn 0.9229100942611694 -0.3850156962871552 0
vn 0.9229099750518799 -0.3850156962871552 0
vn 0 -0.3850153088569641 -0.922910213470459
vn 0 -0.3850161135196686 -0.9229099154472351
vn 0 -0.385015994310379 -0.9229099750518799
vn -0.9229099154472351 -0.385015994310379 -0
vn -0.9229099750518799 -0.3850159049034119 -0
vn -0.9229099154472351 -0.3850157856941223 -0
vn -0.9229099154472351 -0.3850159049034119 -0

# Mesh 'computer01_mouse_reference' with 64 faces
g computer01_mouse_reference
usemtl computer01
f  1/1/1 2/2/1 3/3/1
f  3/3/1 4/4/1 1/1/1
f  5/5/2 6/6/3 7/7/4
f  5/5/2 8/8/5 6/6/3
f  5/5/2 9/9/6 8/8/5
f  10/3/7 11/4/7 4/1/7
f  4/1/7 3/2/7 10/3/7
f  3/1/8 2/2/8 12/3/8
f  12/3/8 10/4/8 3/1/8
f  1/1/9 4/2/9 11/3/9
f  11/3/9 13/4/9 1/1/9
f  13/3/10 12/4/10 2/1/10
f  2/1/10 1/2/10 13/3/10
f  10/4/11 12/1/11 13/2/11
f  13/2/11 11/3/11 10/4/11
f  14/10/12 15/11/13 16/12/14
f  14/10/12 17/13/15 15/11/13
f  17/13/15 18/14/16 15/11/13
f  17/13/15 19/15/17 18/14/16
f  19/15/17 20/16/18 18/14/16
f  19/15/17 21/17/19 20/16/18
f  20/16/18 21/17/19 22/18/20
f  22/18/20 21/17/19 23/19/21
f  23/19/21 24/20/22 22/18/20
f  23/19/21 25/21/23 24/20/22
f  25/21/23 26/22/24 24/20/22
f  25/21/23 27/23/25 26/22/24
f  28/24/26 29/25/27 30/26/28
f  28/24/26 31/27/29 29/25/27
f  31/27/29 16/12/30 29/25/27
f  31/27/29 14/10/31 16/12/30
f  14/10/31 31/27/29 32/28/32
f  32/28/32 31/27/29 28/24/26
f  32/28/32 28/24/26 33/29/33
f  33/29/33 28/24/26 27/23/34
f  27/23/34 28/24/26 30/26/28
f  27/23/34 30/26/28 26/22/35
f  30/26/28 5/5/36 26/22/35
f  29/25/27 5/5/36 30/26/28
f  29/25/27 9/9/37 5/5/36
f  9/9/37 29/25/27 16/12/30
f  9/9/38 16/12/39 15/11/40
f  9/9/38 15/11/40 8/8/41
f  18/14/42 8/8/41 15/11/40
f  8/8/41 18/14/42 20/16/43
f  8/8/41 20/16/43 6/6/44
f  20/16/43 22/18/45 6/6/44
f  6/6/44 22/18/45 7/7/46
f  24/20/47 7/7/46 22/18/45
f  7/7/46 24/20/47 26/22/48
f  7/7/46 26/22/48 5/5/49
f  25/21/50 33/29/51 27/23/52
f  25/21/50 34/30/53 33/29/51
f  34/30/53 25/21/50 23/19/54
f  23/19/54 21/17/55 34/30/53
f  34/30/53 21/17/55 35/31/56
f  19/15/57 35/31/56 21/17/55
f  19/15/57 36/32/58 35/31/56
f  36/32/58 19/15/57 17/13/59
f  14/10/60 36/32/58 17/13/59
f  14/10/60 32/28/61 36/32/58
f  33/29/62 36/32/63 32/28/64
f  33/29/62 35/31/65 36/32/63
f  33/29/62 34/30/66 35/31/65

# Mesh 'computer01_monitor_reference' with 157 faces
g computer01_monitor_reference
usemtl computer01
f  37/33/67 38/34/67 39/35/67
f  39/35/68 40/36/69 41/37/69
f  39/35/68 42/38/68 40/36/69
f  43/39/70 44/40/71 45/41/72
f  45/41/72 37/33/70 43/39/70
f  46/42/73 47/43/74 48/44/74
f  48/44/74 49/45/73 46/42/73
f  38/46/75 50/47/76 51/48/77
f  51/48/77 42/49/78 38/46/75
f  40/49/79 52/50/80 53/47/81
f  53/47/81 54/46/82 40/49/79
f  55/51/7 56/52/7 57/51/7
f  58/52/7 56/52/7 55/51/7
f  59/53/83 60/54/84 61/55/85
f  59/53/83 62/56/86 60/54/84
f  62/56/86 63/57/87 60/54/84
f  62/56/86 64/58/88 63/57/87
f  65/59/89 66/60/90 67/61/90
f  67/61/90 68/62/91 65/59/89
f  69/63/92 70/64/93 71/65/93
f  71/65/93 72/66/93 69/63/92
f  73/67/94 74/68/95 75/69/96
f  75/69/96 76/70/97 73/67/94
f  69/63/98 73/67/99 70/64/100
f  69/63/98 74/68/101 73/67/99
f  77/71/102 59/53/102 61/55/102
f  77/71/102 78/72/102 59/53/102
f  79/73/9 80/74/103 77/75/104
f  79/73/9 81/76/105 80/74/103
f  77/75/104 61/77/106 60/78/9
f  77/75/104 60/78/9 63/79/9
f  79/73/9 77/75/104 63/79/9
f  63/79/9 82/80/107 79/73/9
f  82/80/107 83/81/9 79/73/9
f  83/81/9 84/82/108 79/73/9
f  85/83/109 84/82/108 83/81/9
f  86/84/9 79/73/9 87/85/9
f  87/85/9 79/73/9 88/86/9
f  84/82/108 88/86/9 79/73/9
f  89/87/110 88/86/9 84/82/108
f  90/88/9 89/87/110 84/82/108
f  91/89/9 88/86/9 89/87/110
f  92/90/9 87/85/9 88/86/9
f  54/91/111 45/41/111 44/40/111
f  41/37/112 75/69/113 39/35/114
f  41/37/112 76/70/115 75/69/113
f  43/39/116 71/65/117 44/40/116
f  43/39/116 72/66/117 71/65/117
f  93/92/118 94/93/119 57/51/118
f  95/94/118 94/93/119 93/92/118
f  96/95/120 83/96/121 82/97/122
f  96/95/120 97/98/121 83/96/121
f  83/96/121 97/98/121 98/99/123
f  98/99/123 85/100/123 83/96/121
f  67/61/124 49/45/125 68/62/126
f  48/44/127 68/62/126 49/45/125
f  52/101/128 51/102/128 50/103/128
f  50/103/129 53/104/130 52/101/131
f  65/59/132 47/43/133 50/103/129
f  53/104/130 50/103/129 47/43/133
f  47/43/133 46/42/134 53/104/130
f  50/103/135 99/105/135 65/59/136
f  68/62/137 48/44/137 47/43/137
f  87/106/138 100/107/139 86/108/139
f  87/106/138 101/109/139 100/107/139
f  102/110/140 95/94/140 103/111/140
f  102/110/140 94/93/141 95/94/140
f  57/51/142 104/112/142 93/92/143
f  57/51/142 56/52/142 104/112/142
f  55/51/11 105/110/11 58/52/11
f  55/51/11 106/93/11 105/110/11
f  58/52/11 55/51/11 106/93/11
f  56/52/9 105/110/9 102/110/9
f  56/52/9 58/52/9 105/110/9
f  55/51/8 94/93/8 106/93/8
f  57/51/8 94/93/8 55/51/8
f  107/113/1 108/114/1 109/115/1
f  107/113/1 110/116/1 108/114/1
f  96/95/144 82/97/145 63/57/144
f  63/57/144 64/58/145 96/95/144
f  76/70/146 44/40/147 71/65/148
f  76/70/146 41/37/149 44/40/147
f  66/60/150 65/59/151 99/105/152
f  99/105/152 111/117/150 66/60/150
f  93/92/153 104/112/154 109/115/155
f  109/115/155 108/114/153 93/92/153
f  110/116/156 107/113/157 103/111/157
f  103/111/157 95/94/158 110/116/156
f  46/42/159 66/60/160 111/117/161
f  111/117/161 53/104/162 46/42/159
f  56/52/163 103/111/163 104/112/163
f  56/52/163 102/110/163 103/111/163
f  112/90/164 113/86/165 114/89/8
f  100/84/8 112/90/164 114/89/8
f  100/84/8 101/85/166 112/90/164
f  115/74/167 116/76/168 100/84/8
f  116/76/168 117/73/8 100/84/8
f  64/79/8 62/78/8 59/77/8
f  64/79/8 59/77/8 78/75/8
f  64/79/8 78/75/8 96/80/8
f  115/74/167 96/80/8 78/75/8
f  96/80/8 115/74/167 100/84/8
f  97/81/8 96/80/8 100/84/8
f  100/84/8 98/83/8 97/81/8
f  100/84/8 114/89/8 98/83/8
f  114/89/8 118/88/8 98/83/8
f  114/89/8 119/87/8 118/88/8
f  118/88/8 120/82/8 98/83/8
f  100/118/169 79/119/170 86/120/171
f  100/118/169 117/121/172 79/119/170
f  117/121/172 81/122/173 79/119/170
f  117/121/172 116/123/174 81/122/173
f  116/123/174 80/124/175 81/122/173
f  116/123/174 115/125/176 80/124/175
f  115/125/176 77/71/177 80/124/175
f  115/125/176 78/72/178 77/71/177
f  66/60/179 46/42/179 49/45/179
f  98/99/180 84/126/181 85/100/182
f  98/99/180 120/127/183 84/126/181
f  120/127/183 90/128/184 84/126/181
f  120/127/183 118/129/185 90/128/184
f  118/129/185 89/130/186 90/128/184
f  118/129/185 119/131/187 89/130/186
f  119/131/187 91/132/188 89/130/186
f  119/131/187 114/133/189 91/132/188
f  114/133/189 88/134/190 91/132/188
f  114/133/189 113/135/191 88/134/190
f  113/135/191 92/136/192 88/134/190
f  113/135/191 112/137/193 92/136/192
f  112/137/193 87/106/194 92/136/192
f  112/137/193 101/109/194 87/106/194
f  111/138/195 99/139/196 45/140/195
f  37/141/197 45/140/195 99/139/196
f  99/142/198 50/47/199 37/143/200
f  38/46/201 37/143/200 50/47/199
f  106/93/10 94/93/10 105/110/10
f  105/110/10 94/93/10 102/110/10
f  39/35/202 43/39/202 37/33/202
f  39/35/203 38/34/203 42/38/203
f  39/35/204 75/69/205 43/39/206
f  43/39/206 75/69/205 72/66/207
f  44/40/208 41/37/208 54/91/208
f  49/45/209 67/61/209 66/60/209
f  95/94/210 93/92/210 108/114/210
f  40/36/211 54/91/211 41/37/211
f  45/143/212 54/46/213 111/142/214
f  53/47/215 111/142/214 54/46/213
f  104/112/216 103/111/216 107/113/216
f  76/70/217 71/65/217 70/64/217
f  40/138/218 42/139/219 52/144/220
f  51/141/221 52/144/220 42/139/219
f  70/64/222 73/67/222 76/70/222
f  72/66/223 75/69/223 74/68/223
f  74/68/224 69/63/224 72/66/224
f  47/43/225 65/59/225 68/62/225
f  108/114/226 110/116/226 95/94/226
f  107/113/227 109/115/227 104/112/227

# Mesh 'computer01_case_reference' with 52 faces
g computer01_case_reference
usemtl computer01
f  121/145/1 122/146/1 123/147/1
f  123/147/1 124/148/1 121/145/1
f  125/149/228 126/150/229 127/149/230
f  128/150/231 127/149/230 126/150/229
f  129/151/1 130/152/1 131/151/1
f  132/152/1 131/151/1 130/152/1
f  133/153/11 134/154/11 135/153/11
f  136/154/11 135/153/11 134/154/11
f  137/155/1 138/156/1 139/155/1
f  140/156/1 139/155/1 138/156/1
f  138/156/232 125/149/233 130/152/234
f  126/150/235 125/149/233 138/156/232
f  126/150/235 138/156/232 137/155/236
f  123/157/237 126/150/235 137/155/236
f  137/155/236 134/154/238 123/157/237
f  124/158/239 123/157/237 134/154/238
f  134/154/238 133/153/240 124/158/239
f  133/153/240 138/156/232 124/158/239
f  124/158/239 138/156/232 130/152/234
f  130/152/234 141/159/241 124/158/239
f  129/151/242 141/159/241 130/152/234
f  129/151/242 142/160/243 141/159/241
f  142/160/243 129/151/242 126/150/235
f  142/160/243 126/150/235 123/157/237
f  143/161/11 144/162/11 145/163/11
f  145/163/11 146/164/11 143/161/11
f  126/150/9 131/151/9 128/150/9
f  131/151/9 126/150/9 129/151/9
f  130/152/8 127/149/8 132/152/8
f  127/149/8 130/152/8 125/149/8
f  132/152/244 128/150/245 131/151/246
f  128/150/245 132/152/244 127/149/247
f  134/154/9 139/155/9 136/154/9
f  139/155/9 134/154/9 137/155/9
f  138/156/8 135/153/8 140/156/8
f  135/153/8 138/156/8 133/153/8
f  140/156/7 136/154/7 139/155/7
f  136/154/7 140/156/7 135/153/7
f  145/165/248 144/166/249 141/159/250
f  141/159/250 142/160/248 145/165/248
f  144/167/251 143/168/251 147/169/252
f  147/169/252 141/170/252 144/167/251
f  143/171/253 146/172/254 148/173/255
f  148/173/255 147/174/253 143/171/253
f  146/168/256 145/167/257 142/170/258
f  142/170/258 148/169/259 146/168/256
f  123/175/8 122/176/8 148/169/8
f  148/169/8 142/170/8 123/175/8
f  122/177/10 121/178/10 147/174/10
f  147/174/10 148/173/10 122/177/10
f  121/176/9 124/175/9 141/170/9
f  141/170/9 147/169/9 121/176/9

